<svg width="48" height="48" xmlns="http://www.w3.org/2000/svg">

 <g>
  <title>background</title>
  <rect fill="none" id="canvas_background" height="402" width="582" y="-1" x="-1"/>
 </g>
 <g>
  <title>Layer 1</title>
  <g transform="rotate(-179.90103149414062 23.999998092651367,23.521268844604492) " id="svg_13">
   <path fill="#878a8c" id="svg_2" d="m15.6,47.008772l16.8,0c1.1,0 2,-0.9 2,-2l0,-19.6l7.2,0c0.8,0 1.4,-0.4 1.8,-1.1c0.3,-0.7 0.2,-1.5 -0.3,-2.1l-17.6,-21.5c-0.7,-0.9 -2.3,-0.9 -3,0l-17.6,21.5c-0.5,0.6 -0.6,1.4 -0.3,2.1c0.3,0.7 1,1.1 1.8,1.1l7.2,0l0,19.6c0,1.1 0.9,2 2,2zm-5.1,-25.5l13.5,-16.5l13.5,16.5l-5.1,0c-1.1,0 -2,0.9 -2,2l0,19.6l-12.9,0l0,-19.6c0,-1.1 -0.9,-2 -2,-2l-5,0z"/>
   <path d="m20.186586,10.870618c0,0 -0.025379,0.005048 0,0.06632c0.035891,0.08665 0.25415,0.401767 0.198959,0.795842c-0.133934,0.956304 -1.115589,2.494951 -1.923286,4.310817c-0.640669,1.440355 -0.881588,2.539595 -0.928484,2.586491c-0.046896,0.046896 -0.06632,0 -0.06632,0.06632c0,0 0.198259,0.136562 0.928484,0.26528c2.716595,0.478855 5.106659,0.729523 6.897306,0.795843l1.127443,0l0,0" id="svg_3" stroke-width="null" fill="none"/>
   <rect id="svg_6" height="23.212089" width="16.580063" y="20.884977" x="15.345207" stroke-width="null" fill="#878a8c"/>
   <rect id="svg_8" height="4.708738" width="27.522905" y="18.033206" x="10.437508" stroke-width="null" fill="#878a8c"/>
   <rect id="svg_9" height="4.775058" width="22.349925" y="15.048794" x="13.289279" stroke-width="null" fill="#878a8c"/>
   <rect stroke="null" id="svg_10" height="6.366744" width="18.10543" y="11.202219" x="14.615683" stroke-width="null" fill="#878a8c"/>
   <rect id="svg_11" height="4.377137" width="11.208123" y="8.217808" x="18.79386" stroke-width="null" fill="#878a8c"/>
   <rect stroke="null" id="svg_12" height="5.30562" width="6.300424" y="4.503874" x="20.916108" stroke-width="null" fill="#878a8c"/>
  </g>
 </g>
</svg>